<?xml version="1.0" standalone="no"?>
<!DOCTYPE svg PUBLIC "-//W3C//DTD SVG 20010904//EN"
 "http://www.w3.org/TR/2001/REC-SVG-20010904/DTD/svg10.dtd">
<svg version="1.0" xmlns="http://www.w3.org/2000/svg"
 width="1500.000000pt" height="1500.000000pt" viewBox="0 0 1500.000000 1500.000000"
 preserveAspectRatio="xMidYMid meet">
<metadata>
Created by potrace 1.16, written by Peter Selinger 2001-2019
</metadata>
<g transform="translate(0.000000,1500.000000) scale(0.100000,-0.100000)"
fill="#000000" stroke="none">
<path d="M6360 14845 c0 -13 -26 -15 -175 -15 -145 0 -175 -2 -175 -14 0 -20
-21 -24 -140 -25 -80 -1 -108 -5 -116 -16 -8 -11 -31 -15 -86 -15 -50 0 -81
-5 -94 -15 -11 -8 -42 -15 -74 -15 -69 0 -100 -8 -100 -26 0 -11 -19 -14 -80
-14 -64 0 -80 -3 -80 -15 0 -12 -15 -15 -75 -15 -68 0 -75 -2 -75 -20 0 -18
-7 -20 -60 -20 -47 0 -60 -3 -60 -15 0 -12 -14 -15 -70 -15 -56 0 -70 -3 -70
-15 0 -15 -17 -19 -77 -15 -27 1 -33 -2 -33 -19 0 -19 -6 -21 -60 -21 -47 0
-60 -3 -60 -15 0 -11 -12 -15 -50 -15 -43 0 -50 -3 -50 -20 0 -17 -7 -20 -50
-20 -38 0 -50 -4 -50 -15 0 -11 -12 -15 -49 -15 -40 0 -50 -3 -54 -20 -4 -16
-14 -20 -46 -20 -30 0 -41 -4 -41 -15 0 -11 -12 -15 -45 -15 -33 0 -45 -4 -45
-15 0 -10 -14 -17 -40 -21 -24 -4 -40 -12 -40 -20 0 -10 -13 -14 -39 -14 -24
0 -41 -5 -44 -14 -3 -7 -22 -17 -42 -20 -20 -4 -39 -14 -42 -22 -3 -8 -18 -14
-34 -14 -19 0 -29 -5 -29 -15 0 -10 -10 -15 -33 -15 -20 0 -39 -8 -50 -20 -9
-11 -25 -20 -36 -20 -10 0 -21 -7 -25 -15 -3 -9 -18 -15 -34 -15 -16 0 -35 -7
-42 -15 -7 -8 -28 -15 -46 -15 -27 0 -34 -4 -34 -20 0 -14 -7 -20 -24 -20 -13
0 -29 -7 -36 -15 -7 -8 -18 -15 -25 -15 -7 0 -24 -9 -38 -20 -14 -11 -32 -20
-40 -20 -8 0 -17 -7 -21 -15 -3 -8 -14 -15 -24 -15 -10 0 -29 -9 -42 -20 -13
-11 -31 -20 -42 -20 -10 0 -18 -5 -18 -11 0 -5 -13 -15 -30 -20 -16 -6 -30
-15 -30 -20 0 -5 -6 -9 -13 -9 -8 0 -24 -9 -37 -20 -13 -11 -32 -20 -42 -20
-10 0 -21 -6 -24 -14 -3 -8 -19 -18 -35 -21 -16 -4 -29 -11 -29 -16 0 -5 -11
-14 -25 -19 -14 -5 -25 -14 -25 -20 0 -5 -8 -10 -18 -10 -19 0 -52 -22 -80
-52 -9 -10 -21 -18 -28 -18 -6 0 -24 -12 -40 -26 -16 -14 -44 -32 -61 -40 -18
-8 -33 -19 -33 -24 0 -6 -7 -10 -15 -10 -9 0 -18 -6 -21 -14 -3 -8 -19 -19
-35 -25 -16 -5 -29 -15 -29 -20 0 -6 -6 -11 -13 -11 -7 0 -20 -8 -29 -17 -9
-10 -51 -43 -92 -73 -42 -30 -76 -61 -76 -67 0 -7 -8 -13 -17 -13 -10 0 -34
-15 -54 -34 -20 -18 -44 -36 -53 -39 -9 -4 -16 -11 -16 -17 0 -5 -7 -10 -15
-10 -8 0 -15 -4 -15 -10 0 -11 -48 -60 -60 -60 -4 0 -25 -16 -44 -35 -20 -19
-41 -35 -46 -35 -6 0 -10 -4 -10 -9 0 -9 -76 -91 -85 -91 -5 0 -295 -290 -295
-296 0 -2 -20 -24 -45 -50 -25 -25 -59 -66 -77 -90 -17 -24 -35 -44 -40 -44
-4 0 -8 -4 -8 -9 0 -5 -22 -33 -50 -61 -27 -28 -50 -56 -50 -61 0 -5 -7 -12
-15 -15 -8 -3 -17 -15 -21 -26 -3 -12 -18 -33 -33 -47 -14 -15 -47 -58 -73
-96 -60 -90 -154 -226 -201 -292 -20 -29 -37 -55 -37 -58 0 -3 -16 -28 -35
-55 -19 -27 -35 -53 -35 -57 0 -3 -6 -14 -14 -22 -8 -9 -26 -38 -41 -66 -14
-27 -35 -63 -45 -80 -11 -16 -27 -44 -35 -62 -8 -17 -19 -34 -25 -38 -5 -3
-10 -14 -10 -25 0 -10 -7 -20 -15 -24 -8 -3 -15 -12 -15 -21 0 -20 -41 -98
-57 -108 -7 -4 -13 -21 -13 -36 0 -16 -6 -31 -14 -34 -8 -3 -17 -19 -21 -36
-3 -16 -13 -35 -21 -42 -8 -6 -14 -22 -14 -35 0 -21 -17 -63 -56 -136 -8 -14
-14 -33 -14 -41 0 -9 -6 -28 -14 -44 -31 -65 -45 -100 -52 -133 -3 -19 -13
-44 -20 -55 -8 -11 -14 -31 -14 -46 0 -15 -6 -32 -14 -38 -8 -7 -17 -30 -21
-52 -4 -23 -13 -53 -21 -67 -8 -15 -14 -43 -14 -62 0 -19 -7 -44 -15 -54 -8
-11 -15 -29 -15 -40 0 -12 -6 -33 -14 -47 -7 -14 -16 -49 -20 -78 -4 -30 -14
-60 -22 -68 -8 -9 -14 -34 -14 -62 0 -27 -7 -65 -15 -85 -8 -20 -18 -71 -22
-113 -7 -84 -25 -122 -58 -123 -18 -1 -19 -1 -3 -11 14 -8 18 -23 18 -65 0
-30 -5 -64 -10 -74 -6 -11 -17 -86 -25 -167 -22 -220 -23 -223 -48 -224 -22 0
-22 -1 -2 -10 19 -9 20 -20 21 -277 1 -178 -1 -234 -6 -167 -7 108 -21 155
-45 155 -13 0 -15 -104 -15 -940 0 -620 -3 -940 -10 -940 -5 0 -10 -7 -10 -15
0 -8 5 -15 10 -15 6 0 10 -13 10 -30 0 -16 -4 -30 -10 -30 -6 0 -10 -60 -10
-160 0 -100 4 -160 10 -160 6 0 10 -78 10 -215 0 -184 2 -215 15 -215 13 0 15
-22 15 -140 0 -133 1 -140 20 -140 18 0 20 -7 20 -85 0 -69 3 -85 15 -85 12 0
15 -17 15 -90 0 -70 3 -90 14 -90 21 0 27 -27 20 -81 -6 -45 -5 -49 15 -49 19
0 21 -5 21 -70 0 -56 3 -70 15 -70 12 0 15 -13 15 -55 0 -48 2 -55 20 -55 18
0 20 -7 20 -60 0 -47 3 -60 15 -60 11 0 15 -11 15 -40 0 -29 4 -40 15 -40 11
0 15 -12 15 -51 0 -42 3 -52 20 -56 16 -4 20 -14 20 -49 0 -32 4 -44 15 -44
11 0 15 -11 15 -40 0 -33 3 -40 20 -40 17 0 20 -7 20 -45 0 -33 4 -45 15 -45
11 0 15 -11 15 -40 0 -29 4 -40 15 -40 9 0 15 -9 15 -22 0 -39 12 -68 26 -68
9 0 14 -12 14 -35 0 -24 5 -35 15 -35 10 0 15 -11 15 -35 0 -28 4 -35 20 -35
16 0 20 -7 20 -35 0 -24 5 -35 15 -35 10 0 15 -10 15 -29 0 -20 6 -30 20 -34
15 -4 20 -14 20 -41 0 -25 4 -36 15 -36 10 0 15 -10 15 -30 0 -20 5 -30 15
-30 10 0 15 -11 15 -35 0 -28 4 -35 20 -35 13 0 20 -7 20 -20 0 -11 6 -20 14
-20 17 0 27 -34 19 -71 -5 -25 -2 -29 16 -29 12 0 21 -6 21 -15 0 -8 7 -15 15
-15 10 0 15 -11 15 -35 0 -28 4 -35 20 -35 13 0 20 -7 20 -20 0 -11 7 -20 15
-20 10 0 15 -10 15 -30 0 -20 5 -30 15 -30 8 0 15 -9 15 -20 0 -13 7 -20 20
-20 16 0 20 -7 20 -30 0 -18 6 -33 15 -36 9 -4 15 -19 15 -40 0 -24 5 -34 15
-34 8 0 15 -7 15 -15 0 -8 9 -15 20 -15 15 0 20 -7 20 -25 0 -15 6 -25 15 -25
8 0 17 -11 21 -25 3 -14 12 -25 20 -25 8 0 14 -9 14 -20 0 -11 7 -20 15 -20 9
0 15 -9 15 -25 0 -16 6 -25 15 -25 9 0 20 -11 25 -25 5 -14 14 -25 20 -25 5 0
10 -7 10 -15 0 -8 7 -15 15 -15 10 0 15 -10 15 -30 0 -23 4 -30 20 -30 13 0
20 -7 20 -20 0 -11 7 -20 15 -20 9 0 18 -7 21 -15 4 -8 12 -15 20 -15 8 0 14
-9 14 -20 0 -11 7 -20 15 -20 10 0 15 -11 15 -35 0 -24 5 -35 15 -35 20 0 52
-28 76 -67 12 -18 27 -33 35 -33 8 0 14 -9 14 -20 0 -11 7 -20 15 -20 8 0 15
-9 15 -20 0 -11 6 -20 14 -20 8 0 16 -7 20 -15 3 -8 12 -15 20 -15 8 0 17 -13
21 -30 4 -17 11 -30 15 -30 12 0 90 -79 90 -91 0 -5 5 -9 10 -9 13 0 60 -49
60 -61 0 -5 7 -9 15 -9 8 0 15 -7 15 -15 0 -8 7 -15 15 -15 9 0 19 -8 22 -17
6 -17 39 -53 48 -53 8 0 55 -51 55 -60 0 -6 4 -10 10 -10 11 0 60 -48 60 -59
0 -5 7 -11 15 -15 8 -3 15 -12 15 -21 0 -8 7 -15 15 -15 8 0 15 -7 15 -15 0
-10 11 -15 35 -15 28 0 35 -4 35 -20 0 -11 7 -20 15 -20 8 0 15 -5 15 -10 0
-6 7 -13 17 -17 9 -3 31 -21 50 -40 19 -18 38 -33 42 -33 4 0 11 -15 16 -32 9
-29 15 -33 48 -36 24 -2 37 -8 37 -18 0 -8 7 -14 15 -14 8 0 15 -7 15 -15 0
-8 7 -15 16 -15 9 0 18 -9 21 -20 4 -14 14 -20 34 -20 19 0 29 -5 29 -15 0 -8
9 -15 20 -15 11 0 20 -6 20 -14 0 -8 11 -17 25 -20 14 -4 25 -13 25 -21 0 -9
10 -15 25 -15 16 0 25 -6 25 -15 0 -8 7 -15 16 -15 9 0 18 -9 21 -20 3 -11 12
-20 19 -20 8 0 14 -9 14 -20 0 -18 4 -20 35 -14 27 5 35 3 35 -9 0 -8 11 -18
25 -21 14 -4 25 -13 25 -21 0 -9 10 -15 25 -15 15 0 25 -6 25 -14 0 -8 13 -17
30 -21 16 -4 30 -13 30 -21 0 -8 9 -14 19 -14 10 0 21 -7 25 -15 3 -8 14 -15
25 -15 11 0 25 -9 31 -20 6 -11 21 -20 34 -20 13 0 26 -7 30 -15 3 -8 14 -15
25 -15 10 0 21 -6 24 -14 3 -8 19 -17 36 -21 17 -4 31 -13 31 -21 0 -8 10 -14
25 -14 18 0 25 -5 25 -19 0 -14 5 -18 21 -14 13 4 27 -2 40 -16 11 -11 28 -21
38 -21 11 0 21 -7 25 -15 3 -8 17 -15 31 -15 14 0 28 -6 31 -14 3 -8 16 -17
30 -20 13 -4 24 -13 24 -21 0 -11 11 -15 40 -15 27 0 40 -4 40 -14 0 -7 13
-16 30 -19 18 -4 30 -13 30 -22 0 -11 10 -15 35 -15 27 0 35 -4 35 -19 0 -14
6 -17 25 -13 20 3 25 0 25 -17 0 -17 6 -21 35 -21 24 0 35 -5 35 -15 0 -10 11
-15 35 -15 24 0 35 -5 35 -15 0 -9 10 -15 26 -15 17 0 28 -6 31 -20 4 -15 14
-20 39 -20 28 0 34 -4 34 -21 0 -19 4 -21 31 -15 25 5 32 2 36 -14 4 -16 14
-20 44 -20 28 0 39 -4 39 -15 0 -10 10 -15 30 -15 23 0 30 -4 30 -20 0 -17 7
-20 45 -20 33 0 45 -4 45 -15 0 -11 11 -15 40 -15 33 0 40 -3 40 -20 0 -17 7
-20 50 -20 38 0 50 -4 50 -15 0 -10 10 -15 30 -15 20 0 30 -5 30 -15 0 -15 38
-21 108 -16 26 1 32 -2 32 -19 0 -16 6 -20 35 -20 24 0 35 -5 35 -15 0 -12 13
-15 55 -15 48 0 55 -2 55 -20 0 -18 7 -20 65 -20 51 0 65 -3 65 -15 0 -12 14
-15 65 -15 49 0 65 -3 65 -14 0 -18 39 -28 80 -20 26 6 32 3 37 -15 5 -19 12
-21 69 -21 50 0 64 -3 64 -15 0 -12 14 -15 65 -15 58 0 65 -2 65 -20 0 -18 7
-20 80 -20 64 0 80 -3 80 -15 0 -12 14 -15 70 -15 54 0 70 -3 70 -14 0 -19 67
-30 131 -21 46 6 51 5 56 -14 5 -20 12 -21 114 -21 90 0 109 -3 109 -15 0 -12
20 -15 120 -15 113 0 120 -1 120 -20 0 -19 7 -20 220 -20 189 0 220 -2 220
-15 0 -13 52 -15 411 -15 360 0 410 2 405 15 -3 8 -2 14 2 14 4 -1 91 -1 195
0 180 1 187 2 187 21 0 19 7 20 145 20 122 0 145 2 145 15 0 12 18 15 99 15
86 0 100 2 103 17 3 15 14 17 86 14 78 -3 84 -1 89 18 5 19 12 21 94 21 72 0
89 3 89 15 0 12 13 15 60 15 53 0 60 2 60 20 0 18 7 20 70 20 55 0 70 3 70 15
0 11 17 15 73 17 47 2 71 7 70 14 -1 7 17 15 42 19 29 4 45 11 45 21 0 10 13
14 45 14 33 0 45 4 45 15 0 16 10 18 78 15 36 -1 42 1 42 19 0 18 6 21 45 21
33 0 45 4 45 15 0 12 13 15 60 15 53 0 60 2 60 20 0 16 7 20 33 20 18 0 42 7
53 15 10 8 31 15 45 15 18 0 28 7 32 21 5 17 10 19 41 13 32 -5 36 -4 36 15 0
19 6 21 50 21 38 0 50 4 50 15 0 10 11 15 35 15 28 0 35 4 35 20 0 16 7 20 30
20 20 0 30 5 30 15 0 11 11 15 40 15 29 0 40 4 40 15 0 10 10 15 28 15 42 0
72 11 72 26 0 8 9 14 20 14 11 0 20 7 20 15 0 10 10 15 34 15 19 0 39 7 47 17
10 11 10 14 2 9 -7 -4 -13 -2 -13 3 0 6 14 11 30 11 20 0 30 5 30 15 0 8 3 14
8 14 31 -5 62 3 62 16 0 9 10 15 26 15 17 0 28 6 31 20 4 15 14 20 39 20 24 0
34 5 34 15 0 10 10 15 30 15 19 0 34 7 42 20 7 11 18 20 25 20 7 0 13 7 13 15
0 10 10 15 30 15 23 0 30 4 30 20 0 13 7 20 20 20 11 0 20 7 20 15 0 10 11 15
35 15 24 0 35 5 35 15 0 10 10 15 31 15 22 0 32 5 36 20 3 11 12 20 19 20 8 0
14 7 14 15 0 10 10 15 30 15 23 0 30 4 30 20 0 13 7 20 20 20 11 0 20 7 20 15
0 10 11 15 35 15 24 0 35 5 35 15 0 8 7 15 15 15 8 0 15 9 15 20 0 15 7 20 25
20 17 0 23 4 19 14 -3 8 1 14 8 13 36 -1 48 4 48 23 0 13 7 20 20 20 11 0 20
6 20 14 0 8 10 16 23 18 12 2 21 9 20 16 -2 6 4 12 12 12 8 0 15 9 15 20 0 15
7 20 29 20 20 0 30 6 34 20 3 11 12 20 21 20 9 0 16 7 16 15 0 8 9 15 20 15
11 0 20 7 20 15 0 10 10 15 28 15 28 0 62 29 62 54 0 8 9 18 20 21 11 3 20 13
20 21 0 8 7 14 15 14 8 0 15 7 15 15 0 8 9 15 20 15 11 0 20 7 20 15 0 8 7 15
15 15 8 0 15 9 15 20 0 13 7 20 20 20 11 0 20 7 20 15 0 8 7 15 15 15 8 0 15
7 15 15 0 8 7 15 16 15 9 0 18 9 21 20 3 11 10 20 16 20 11 0 23 9 83 69 22
23 46 41 52 41 7 0 12 7 12 15 0 8 7 15 15 15 8 0 15 5 15 11 0 14 56 69 70
69 8 0 10 10 8 25 -4 19 -1 25 13 25 12 0 19 7 19 20 0 13 7 20 20 20 11 0 20
7 20 15 0 8 7 15 15 15 8 0 15 7 15 15 0 19 36 55 55 55 8 0 15 9 15 20 0 11
6 20 14 20 7 0 16 9 19 20 3 11 13 20 22 20 13 0 16 6 12 26 -3 20 0 28 14 31
11 3 19 12 19 19 0 8 9 14 20 14 11 0 20 6 20 14 0 8 7 16 15 20 8 3 15 12 15
20 0 7 9 16 20 19 16 4 19 11 14 36 -5 26 -3 31 13 31 19 0 53 32 53 50 0 6 7
10 15 10 9 0 20 11 25 24 5 13 14 27 19 31 6 3 11 17 11 31 0 17 5 24 20 24
16 0 20 7 20 35 0 24 5 35 15 35 10 0 15 10 15 30 0 20 5 30 15 30 10 0 15 10
15 31 0 22 5 32 20 36 13 3 20 14 20 29 0 15 6 24 15 24 10 0 15 10 15 30 0
20 5 30 15 30 8 0 15 9 15 19 0 11 7 26 15 35 8 8 18 29 21 45 4 17 13 31 20
31 8 0 14 9 14 20 0 11 6 20 14 20 7 0 16 14 20 30 3 18 12 30 21 30 11 0 15
10 15 35 0 28 4 35 20 35 13 0 20 7 20 20 0 11 7 20 15 20 10 0 15 10 15 30 0
20 5 30 15 30 10 0 15 10 15 31 0 22 5 32 20 36 11 3 20 14 20 24 0 11 7 19
15 19 10 0 15 11 15 35 0 24 5 35 15 35 9 0 15 10 15 26 0 17 6 28 20 31 14 4
20 14 20 34 0 17 6 32 15 35 8 4 15 11 15 17 0 23 36 87 53 92 11 4 17 17 17
36 0 19 5 29 15 29 8 0 17 14 21 35 3 19 10 35 14 35 5 0 11 14 15 30 4 17 13
30 21 30 8 0 14 8 14 18 0 11 9 29 20 42 11 13 20 33 20 45 0 11 5 26 11 32
14 14 35 49 51 86 7 15 18 27 25 27 8 0 13 13 13 35 0 24 5 35 15 35 9 0 15 9
15 25 0 14 7 28 15 31 9 4 15 19 15 36 0 18 8 36 22 47 l21 18 -21 21 c-24 24
-20 67 6 57 18 -7 32 11 32 41 0 11 9 29 20 39 11 10 20 25 20 33 0 8 15 40
34 71 18 31 44 76 56 101 12 25 29 49 36 53 8 4 14 16 14 25 0 9 9 31 20 47
11 17 20 38 20 48 0 9 4 17 9 17 11 0 61 102 61 124 0 9 5 16 10 16 6 0 10 5
10 11 0 6 18 48 40 94 22 46 40 90 40 98 0 8 7 20 15 27 8 7 15 18 15 24 0 6
6 23 14 38 8 15 17 41 21 58 4 17 13 43 21 58 8 15 14 33 14 40 0 7 7 15 15
18 8 4 15 17 15 30 0 13 6 41 14 61 8 21 24 70 36 108 12 39 28 79 34 90 7 11
16 40 19 65 3 25 13 59 21 75 9 17 16 40 16 53 0 13 6 35 14 50 7 15 17 47 21
72 4 25 12 48 17 51 5 3 12 34 15 68 4 39 11 65 19 68 10 4 14 24 14 67 0 34
6 85 14 112 8 27 18 81 22 121 4 47 11 74 20 77 11 4 14 33 14 128 0 132 5
168 25 168 9 0 12 122 14 535 2 456 0 535 -12 535 -17 0 -27 79 -27 206 0 68
-3 84 -15 84 -12 0 -15 19 -15 115 0 90 -3 115 -14 115 -16 0 -28 97 -20 152
5 30 3 36 -15 41 -18 4 -21 13 -21 66 0 48 -3 61 -15 61 -15 0 -21 43 -18 123
1 17 -4 27 -13 27 -17 0 -28 42 -20 80 4 25 2 30 -13 30 -15 0 -19 10 -23 51
-3 28 -11 54 -17 58 -7 5 -13 33 -14 64 -2 48 -5 57 -20 57 -16 0 -18 7 -15
50 2 41 0 50 -14 50 -11 0 -18 12 -23 40 -4 21 -4 44 0 50 3 5 0 10 -8 10 -17
0 -27 21 -27 56 0 14 -7 27 -15 30 -10 4 -15 20 -15 45 0 27 -4 39 -14 39 -8
0 -17 13 -21 29 -3 16 -13 35 -21 42 -8 6 -14 20 -14 30 0 11 -9 36 -20 56
-11 21 -20 45 -20 54 0 9 -7 19 -15 23 -8 3 -15 17 -15 31 0 14 -6 28 -14 31
-8 3 -16 19 -20 35 -3 17 -13 37 -21 45 -8 9 -15 24 -15 35 0 11 -7 22 -15 25
-8 4 -15 17 -15 29 0 13 -7 30 -15 38 -7 8 -17 26 -20 40 -4 14 -13 28 -21 31
-8 3 -14 16 -14 29 0 14 -7 30 -15 37 -8 7 -15 18 -15 25 0 7 -9 24 -20 38
-11 14 -20 32 -20 41 0 8 -6 19 -12 23 -15 9 -32 36 -52 81 -8 17 -20 32 -25
32 -6 0 -11 11 -11 25 0 14 -9 34 -20 45 -11 11 -20 27 -20 35 0 8 -5 15 -10
15 -6 0 -15 11 -20 25 -5 14 -14 25 -19 25 -5 0 -12 12 -16 27 -3 15 -10 30
-13 33 -16 12 -52 70 -52 84 0 8 -6 19 -12 23 -20 12 -58 70 -58 88 0 8 -7 15
-15 15 -8 0 -15 6 -15 13 0 8 -9 22 -20 32 -11 10 -20 26 -20 37 0 10 -7 18
-15 18 -8 0 -15 4 -15 9 0 14 -52 91 -62 91 -4 0 -8 7 -8 15 0 9 -7 18 -15 21
-8 3 -17 16 -21 27 -3 12 -19 34 -35 49 -16 15 -29 31 -29 37 0 6 -9 15 -20
21 -11 6 -20 17 -20 25 0 8 -4 15 -10 15 -5 0 -15 11 -22 25 -14 26 -72 93
-155 182 -29 30 -53 58 -53 62 0 4 -29 38 -64 75 -35 37 -67 74 -70 82 -3 7
-12 14 -21 14 -8 0 -15 4 -15 10 0 8 -249 260 -257 260 -2 0 -21 18 -43 40
-22 22 -45 40 -50 40 -6 0 -15 11 -21 24 -6 13 -21 28 -33 34 -22 11 -95 73
-157 135 -21 20 -42 37 -47 37 -6 0 -12 4 -14 8 -2 5 -30 30 -63 57 -32 26
-65 53 -72 59 -16 14 -28 24 -78 61 -50 37 -62 46 -83 66 -43 40 -110 89 -121
89 -6 0 -11 7 -11 15 0 8 -5 15 -10 15 -14 0 -72 41 -83 58 -4 6 -15 12 -23
12 -8 0 -17 6 -20 14 -3 8 -18 18 -34 21 -16 3 -31 13 -34 21 -3 8 -12 14 -21
14 -8 0 -15 6 -15 14 0 8 -13 17 -30 21 -16 4 -30 11 -30 16 0 5 -11 14 -25
19 -14 5 -25 14 -25 20 0 5 -7 10 -15 10 -8 0 -24 9 -35 20 -11 11 -27 20 -35
20 -8 0 -15 5 -15 11 0 5 -13 15 -29 20 -16 6 -32 17 -35 25 -3 8 -15 14 -26
14 -11 0 -20 4 -20 9 0 5 -13 14 -30 20 -16 5 -30 15 -30 20 0 6 -9 11 -20 11
-11 0 -28 9 -37 20 -10 11 -27 20 -40 20 -12 0 -26 6 -30 13 -9 13 -34 30 -73
49 -14 7 -29 18 -33 25 -4 7 -16 13 -26 13 -10 0 -24 6 -30 14 -7 8 -25 18
-41 21 -16 3 -34 13 -41 21 -6 8 -19 14 -29 14 -10 0 -23 6 -29 14 -7 8 -23
17 -38 21 -14 3 -32 13 -40 20 -8 8 -23 15 -33 15 -10 0 -20 4 -22 8 -3 9
-111 62 -126 62 -6 0 -12 7 -16 15 -3 8 -16 15 -29 15 -14 0 -30 7 -37 15 -7
8 -21 15 -31 15 -9 0 -24 6 -32 14 -8 8 -30 18 -50 21 -20 4 -38 13 -41 21 -3
8 -16 14 -30 14 -14 0 -32 7 -40 16 -9 8 -32 18 -51 21 -20 3 -35 11 -35 19 0
9 -12 14 -35 14 -21 0 -38 6 -41 14 -3 7 -23 16 -45 20 -25 4 -39 12 -39 21 0
11 -12 15 -45 15 -38 0 -45 3 -45 19 0 17 -6 20 -41 18 -29 -1 -43 3 -50 16
-7 12 -23 17 -54 17 -33 0 -45 4 -45 15 0 11 -11 15 -41 15 -32 0 -42 4 -46
20 -5 17 -14 20 -59 20 -41 0 -54 4 -54 15 0 12 -13 15 -55 15 -41 0 -55 4
-55 14 0 16 -34 31 -49 22 -14 -9 -41 4 -41 20 0 10 -15 14 -60 14 -53 0 -60
2 -60 20 0 18 -7 20 -65 20 -51 0 -65 3 -65 15 0 12 -13 15 -60 15 -47 0 -60
3 -60 15 0 10 -10 15 -29 15 -62 0 -121 13 -121 26 0 11 -20 14 -85 14 -69 0
-85 3 -85 15 0 12 -16 15 -85 15 -66 0 -85 3 -85 14 0 19 -22 26 -87 26 -35 0
-60 5 -69 15 -12 12 -41 15 -125 15 -90 0 -109 3 -109 15 0 12 -16 15 -77 17
-191 5 -183 4 -183 23 0 13 -32 15 -224 15 -186 0 -226 2 -236 15 -11 13 -91
15 -611 15 -526 0 -599 -2 -599 -15z m6487 -3792 c3 -9 1 -37 -6 -62 -7 -25
-19 -93 -27 -151 -7 -58 -18 -132 -23 -165 -13 -76 -37 -236 -51 -340 -36
-270 -52 -374 -76 -520 -8 -49 -21 -135 -29 -190 -21 -156 -13 -147 -167 -195
-183 -57 -227 -70 -461 -135 -153 -42 -167 -43 -167 -12 0 36 28 251 39 299 6
23 15 90 21 148 7 58 15 121 20 140 19 81 22 130 7 130 -14 0 -105 -91 -232
-235 -44 -49 -83 -92 -86 -95 -3 -3 -42 -45 -85 -95 -44 -49 -95 -106 -114
-126 -19 -19 -58 -60 -85 -90 -65 -71 -84 -76 -127 -35 -19 18 -54 47 -78 65
-25 18 -63 49 -84 69 -22 20 -52 46 -67 57 -100 75 -146 112 -180 146 l-39 39
-14 -23 c-8 -12 -22 -69 -31 -127 -25 -157 -73 -439 -84 -490 -6 -25 -13 -67
-16 -95 -12 -89 -11 -89 -120 -119 -114 -31 -243 -68 -280 -81 -22 -7 -74 -23
-115 -35 -41 -12 -93 -28 -115 -35 -22 -7 -78 -23 -125 -35 -47 -12 -101 -28
-120 -35 -19 -7 -53 -17 -75 -23 -22 -6 -100 -28 -173 -50 -104 -30 -135 -36
-139 -26 -9 24 -27 6 309 301 53 47 101 98 107 113 6 20 19 30 39 35 50 10 58
27 87 185 8 41 24 120 35 175 12 55 25 136 31 180 5 44 17 102 25 129 7 27 14
64 14 83 0 30 17 128 40 231 7 28 7 49 0 62 -10 20 -12 20 -210 45 -134 17
-244 34 -272 42 -37 9 -18 33 40 48 31 9 102 30 157 46 55 16 147 43 205 59
145 42 158 45 220 63 30 9 89 26 130 37 168 45 302 94 329 119 l27 26 56 -20
c30 -11 68 -31 84 -43 41 -34 228 -176 375 -287 70 -52 132 -102 139 -110 21
-25 37 -17 86 43 48 59 95 111 223 247 42 44 112 120 156 169 87 97 234 254
305 327 36 36 59 50 115 67 74 22 184 53 250 69 22 6 85 25 140 43 100 32 204
58 238 59 10 1 20 -6 24 -16z m-3573 -1010 c8 -19 1 -76 -20 -178 -19 -94 -41
-219 -50 -278 -6 -46 -8 -48 -50 -58 -24 -6 -49 -17 -55 -25 -7 -8 -30 -14
-55 -14 -23 0 -46 -4 -49 -10 -3 -5 -15 -10 -27 -10 -11 0 -68 -15 -126 -34
-59 -18 -127 -39 -152 -45 -108 -28 -269 -71 -313 -85 -59 -19 -63 -13 -53 75
9 75 2 78 -101 45 -69 -22 -187 -56 -408 -117 -38 -11 -92 -26 -120 -34 -27
-8 -81 -24 -119 -35 -37 -11 -77 -20 -88 -20 -40 0 -73 -50 -87 -130 -13 -80
-32 -175 -56 -280 -8 -36 -19 -92 -24 -125 -5 -33 -17 -91 -26 -130 -9 -38
-23 -104 -31 -145 -8 -41 -19 -88 -26 -103 -17 -42 1 -54 55 -39 23 7 96 28
162 47 142 41 344 99 435 126 36 11 88 26 115 34 142 39 137 36 152 74 9 20
20 69 26 110 l10 73 51 24 c28 13 59 24 69 24 10 0 66 15 125 34 59 18 127 39
152 45 25 6 65 18 90 25 149 45 218 65 318 90 83 21 90 12 68 -91 -9 -43 -22
-105 -30 -138 -20 -94 -73 -193 -136 -251 -50 -46 -153 -124 -164 -124 -3 0
-27 -13 -53 -28 -48 -28 -154 -71 -228 -93 -22 -6 -65 -20 -95 -29 -30 -10
-93 -28 -140 -40 -47 -12 -103 -28 -125 -35 -22 -7 -67 -20 -100 -30 -33 -10
-71 -21 -85 -26 -14 -4 -45 -13 -70 -19 -25 -6 -88 -24 -140 -40 -123 -38
-262 -79 -325 -95 -27 -8 -63 -18 -80 -24 -16 -5 -64 -20 -105 -31 -41 -12
-86 -26 -100 -32 -14 -6 -50 -17 -80 -24 -30 -7 -86 -22 -125 -34 -142 -43
-205 -60 -226 -60 -19 0 -154 49 -236 86 -17 8 -35 14 -40 14 -21 1 -179 71
-187 84 -10 15 0 79 44 276 40 178 61 275 104 487 25 117 47 216 50 222 13 20
9 93 -4 101 -8 5 -48 12 -90 15 -41 4 -104 13 -140 20 -36 7 -100 19 -143 26
-81 12 -119 30 -102 47 6 6 51 22 100 35 50 14 144 41 210 61 66 20 140 41
165 47 25 5 63 16 85 23 57 21 244 73 405 114 68 18 174 48 305 87 28 8 84 24
125 35 201 55 316 88 540 155 95 28 199 58 300 85 58 16 137 38 175 50 39 12
95 27 125 34 30 7 66 18 80 23 14 6 77 24 140 41 272 71 316 84 335 92 11 5
40 13 65 18 63 14 163 42 169 47 10 11 29 4 35 -12z m-3584 -1014 c8 -14 9
-29 2 -47 -5 -15 -14 -45 -20 -67 -6 -22 -18 -65 -26 -95 -18 -70 -53 -224
-60 -271 -5 -29 -13 -39 -43 -53 -46 -22 -104 -41 -168 -55 -87 -20 -179 -46
-195 -56 -8 -5 -32 -12 -55 -16 -22 -4 -107 -26 -190 -49 -282 -78 -275 -79
-258 15 11 63 1 81 -39 70 -55 -16 -226 -68 -263 -80 -22 -7 -101 -29 -175
-50 -74 -20 -153 -43 -175 -50 -22 -7 -53 -16 -70 -19 -31 -6 -154 -43 -193
-57 -26 -10 -35 -29 -57 -129 -10 -41 -25 -95 -35 -120 -10 -25 -22 -74 -28
-110 -6 -36 -20 -96 -32 -135 -20 -70 -39 -147 -60 -240 -6 -27 -18 -70 -25
-95 -26 -81 -29 -126 -10 -134 9 -3 21 -4 26 -1 4 3 39 14 76 24 73 20 248 71
353 102 36 11 83 24 105 29 22 6 63 16 90 24 28 8 84 24 125 36 108 31 157 49
168 63 11 13 36 102 46 158 10 55 25 68 116 93 47 14 126 36 175 50 50 14 115
33 145 42 30 8 74 22 96 30 23 8 64 19 90 24 27 5 101 24 165 42 123 36 168
36 154 0 -4 -9 -22 -71 -40 -137 -55 -200 -69 -229 -149 -313 -114 -120 -243
-197 -426 -255 -30 -9 -91 -28 -135 -43 -44 -14 -111 -34 -150 -45 -38 -10
-92 -25 -120 -33 -27 -8 -72 -22 -100 -30 -27 -7 -138 -40 -245 -71 -107 -31
-208 -60 -225 -65 -16 -4 -43 -13 -60 -18 -16 -6 -75 -22 -130 -37 -55 -15
-109 -30 -120 -35 -11 -5 -38 -13 -60 -19 -22 -5 -62 -17 -90 -25 -27 -7 -84
-23 -125 -35 -79 -22 -147 -41 -295 -85 -98 -30 -106 -29 -210 14 -38 15 -119
47 -180 70 -184 71 -185 71 -185 94 0 20 22 108 61 251 11 39 26 95 33 125 16
63 35 133 66 240 43 149 50 175 50 198 0 13 16 71 36 129 19 59 34 120 32 137
l-3 30 -115 18 c-63 10 -165 24 -226 32 -120 16 -194 40 -178 56 11 11 200 69
409 125 72 19 144 39 160 44 17 5 75 21 130 36 55 14 136 37 180 50 44 14 148
43 230 65 83 23 170 48 194 56 25 8 53 14 63 14 10 0 26 4 36 9 9 5 64 21 122
36 58 15 123 33 145 40 22 8 101 30 175 50 74 21 151 43 170 50 19 7 55 18 80
24 216 56 337 90 395 111 31 11 151 46 240 70 44 12 94 25 110 30 17 5 98 27
180 50 83 22 173 47 200 55 28 8 84 24 125 35 41 12 95 27 120 35 59 18 58 18
70 -6z m9140 -1828 c0 -62 -6 -114 -15 -141 -8 -23 -15 -64 -15 -91 0 -27 -6
-66 -14 -86 -13 -35 -19 -62 -47 -227 -5 -33 -26 -109 -45 -170 -20 -61 -43
-136 -51 -166 -9 -30 -27 -86 -41 -125 -13 -38 -31 -88 -39 -110 -7 -22 -18
-49 -23 -60 -30 -66 -50 -115 -50 -124 0 -13 -137 -281 -154 -300 -7 -9 -23
-41 -35 -71 -27 -63 -53 -110 -91 -160 -15 -19 -31 -46 -35 -59 -4 -14 -22
-39 -40 -55 -17 -17 -35 -38 -38 -46 -5 -13 -6 -13 -6 0 -1 21 25 84 98 235
82 170 132 275 141 300 5 11 22 49 38 85 17 36 36 83 42 105 7 21 24 64 37 95
14 30 48 123 75 205 28 83 54 157 59 166 5 9 20 59 33 110 14 52 33 119 42
149 32 107 55 196 75 285 19 86 36 161 57 250 6 22 13 57 16 78 12 67 26 28
26 -72z m-13464 -1683 c9 -18 31 -47 50 -65 19 -17 44 -47 57 -65 67 -97 90
-125 115 -142 16 -10 36 -30 45 -45 9 -14 26 -37 37 -51 11 -14 22 -39 23 -55
2 -24 -2 -31 -20 -33 -25 -4 -73 40 -73 67 0 9 -30 45 -65 81 -47 47 -65 72
-65 91 0 18 -15 42 -50 77 -27 28 -50 55 -50 60 0 5 -9 19 -20 32 -21 24 -24
38 -14 64 8 22 11 21 30 -16z m8581 -3256 c29 -18 -208 -97 -382 -127 -22 -4
-76 -16 -120 -26 -273 -62 -758 -110 -1109 -109 -286 0 -393 6 -454 26 -23 8
-68 15 -100 16 l-57 1 70 8 c39 4 169 12 290 18 121 5 231 12 245 15 14 4 102
11 195 16 94 5 247 18 340 29 94 11 232 27 308 35 77 9 142 18 145 20 4 2 66
11 137 21 72 9 175 25 230 35 148 28 240 36 262 22z"/>
</g>
</svg>
